<svg xmlns="http://www.w3.org/2000/svg" width="1920" height="940">
    <defs>
        <linearGradient id="linear-gradient" y1=".5" x2="1.005" y2=".469" gradientUnits="objectBoundingBox">
            <stop offset="0" stop-color="#3d5567"/>
            <stop offset="1" stop-color="#1f2b34"/>
        </linearGradient>
        <clipPath id="clip-path">
            <path id="Rectangle_1" data-name="Rectangle 1" class="cls-1" d="M0 0h1920v940H172A172 172 0 0 1 0 768V0z" transform="translate(0 100)"/>
        </clipPath>
        <style>
            .cls-1{fill:url(#linear-gradient)}.cls-4{fill:#beb7b3}
        </style>
    </defs>
    <g id="Group_16306" data-name="Group 16306" transform="translate(0 -100)">
        <path id="Rectangle_1-2" data-name="Rectangle 1" class="cls-1" d="M0 0h1920v940H172A172 172 0 0 1 0 768V0z" transform="translate(0 100)"/>
        <g id="Mask_Group_19" data-name="Mask Group 19" style="clip-path:url(#clip-path)">
            <g id="wave" transform="rotate(12.04 1520.127 324.972)" style="opacity:.08">
                <g id="Group_16290" data-name="Group 16290" transform="translate(37.831 -44.968)">
                    <path id="Path_17619" data-name="Path 17619" class="cls-4" d="m-12.171 615.583-1.538-.821c30.2-56.487 62.325-97.4 98.2-125.073 32.1-24.767 66.548-38.333 105.316-41.472C261.854 442.381 335.8 473.284 414.079 506c102.466 42.814 208.414 87.092 310.78 42.875 90.622-39.124 73.033-101.835 50.765-181.232C759.066 308.6 740.3 241.685 764 171.3c27.37-81.285 106.835-152.026 242.932-216.268l.745 1.578C872.031 20.64 792.864 91.044 765.654 171.856c-23.529 69.876-4.84 136.517 11.651 195.314 10.834 38.626 21.067 75.111 16.893 106.121-4.637 34.442-26.45 58.967-68.645 77.187-103.043 44.5-209.345.084-312.146-42.87-78.082-32.63-151.841-63.439-223.46-57.648-80.975 6.552-145.198 59.181-202.118 165.623z" transform="translate(13.709 44.968)"/>
                </g>
                <g id="Group_16291" data-name="Group 16291" transform="translate(28.801 -20.843)">
                    <path id="Path_17620" data-name="Path 17620" class="cls-4" d="m-16.217 607.748-1.373-.8C99.095 405.783 237.4 450.883 383.826 498.623c109.562 35.724 222.852 72.661 336.24 11.09 90.955-49.388 78.6-109.688 64.284-179.512-10.336-50.423-22.047-107.573 4.907-168.623C820.16 91.59 897.186 27.42 1024.738-34.6l.693 1.426c-127.2 61.848-203.979 125.762-234.722 195.391-26.752 60.589-15.092 117.476-4.8 167.664 14.438 70.443 26.908 131.274-65.082 181.227C606.836 573 493.214 535.957 383.335 500.131 237.534 452.6 99.823 407.7-16.217 607.748z" transform="translate(17.59 34.6)"/>
                </g>
                <g id="Group_16292" data-name="Group 16292" transform="translate(19.77 3.282)">
                    <path id="Path_17621" data-name="Path 17621" class="cls-4" d="m-20.266 599.91-1.205-.768C27.6 522.186 83.238 481.529 153.62 471.191c62.56-9.189 128.4 6.727 198.095 23.583 116.962 28.285 237.905 57.526 363.576-24.227 90.978-59.186 85.068-115.664 78.808-175.454-9.068-86.648-19.348-184.86 248.446-319.324l.642 1.277C776.276 111.065 786.5 208.756 795.521 294.945c6.306 60.235 12.26 117.134-79.451 176.8-56.461 36.729-117.45 54.176-186.491 53.446-60.973-.679-120.569-15.09-178.2-29.027C215.268 463.252 86.7 432.158-20.266 599.91z" transform="translate(21.471 24.232)"/>
                </g>
                <g id="Group_16293" data-name="Group 16293" transform="translate(10.742 27.404)">
                    <path id="Path_17622" data-name="Path 17622" class="cls-4" d="m-24.318 592.074-1.033-.735C19.471 528.5 70.341 494.17 134.742 483.3c57.392-9.7 118.391.43 182.968 11.148 118.847 19.729 253.553 42.086 392.825-63.069 90.522-68.349 92.278-117.288 94.138-169.1 2.573-71.728 5.235-145.9 255.68-276.14l.586 1.129C811.15 117.16 808.5 190.954 805.94 262.319c-1.871 52.124-3.637 101.356-94.638 170.068-62.446 47.149-129.12 72.912-203.833 78.764-65.81 5.156-128.929-5.322-189.969-15.451-131.014-21.751-244.162-40.533-341.818 96.374z" transform="translate(25.351 13.865)"/>
                </g>
                <g id="Group_16294" data-name="Group 16294" transform="translate(1.716 51.529)">
                    <path id="Path_17623" data-name="Path 17623" class="cls-4" d="m-28.371 584.237-.859-.705c40.413-49.46 86.308-77.415 144.433-87.976 51.915-9.438 107.5-3.884 166.342 1.99 126.493 12.633 269.867 26.943 424.247-105.353 88.728-76.037 99.776-120.613 109.521-159.941 14.389-58.06 26.817-108.2 262.846-235.748l.528.977c-235.6 127.314-247.971 177.234-262.3 235.041-9.787 39.487-20.879 84.246-109.877 160.516C551.775 525.642 408.15 511.3 281.434 498.651c-119.001-11.879-221.78-22.145-309.805 85.586z" transform="translate(29.23 3.497)"/>
                </g>
                <g id="Group_16295" data-name="Group 16295" transform="translate(-7.31 75.652)">
                    <path id="Path_17624" data-name="Path 17624" class="cls-4" d="m-32.425 576.4-.684-.663c78.252-80.814 169.83-76.654 275.872-71.835 134.5 6.108 286.955 13.035 458.3-150.892 80.928-77.426 103.962-116.259 120.78-144.612 27.885-47.012 41.884-70.611 274.129-201.525l.468.828c-232.031 130.788-245.983 154.312-273.782 201.18-16.849 28.4-39.92 67.3-120.941 144.812-76.542 73.233-156.311 118.84-243.864 139.428-76.628 18.017-147.041 14.824-215.134 11.727-105.809-4.8-197.19-8.959-275.144 71.552z" transform="translate(33.109 -6.87)"/>
                </g>
                <g id="Group_16296" data-name="Group 16296" transform="translate(-16.335 99.774)">
                    <path id="Path_17625" data-name="Path 17625" class="cls-4" d="m-36.483 568.549-.5-.612c67.486-55.817 146.362-55.33 237.684-54.8 135.861.817 304.923 1.817 495.639-199.323 21.491-22.666 39.01-41.313 54.467-57.769 83.013-88.367 83.013-88.367 144.819-119.156 37.2-18.531 99.473-49.55 218.157-119.649l.4.682C995.474 88.034 933.189 119.06 895.975 137.6c-61.678 30.724-61.678 30.724-144.6 118.989-15.457 16.453-32.976 35.105-54.469 57.771-85.047 89.7-172.553 147.139-267.524 175.613-82.794 24.828-160.311 24.369-228.7 23.957-91.176-.563-169.9-1.016-237.165 54.619z" transform="translate(36.988 -17.237)"/>
                </g>
                <g id="Group_16297" data-name="Group 16297" transform="translate(-25.361 123.894)">
                    <path id="Path_17626" data-name="Path 17626" class="cls-4" d="m-40.537 560.693-.33-.54C14.966 526.36 79.6 525.5 154.449 524.506c144.258-1.92 323.792-4.307 537.169-249.893 54.095-62.26 90.806-98.473 119.033-117.418 27.08-18.177 46.588-20.842 71.288-24.213 43.41-5.927 102.861-14.045 249.651-105.382l.337.54c-146.908 91.4-206.437 99.531-249.9 105.467-24.618 3.362-44.064 6.017-71.02 24.111-28.178 18.91-64.85 55.091-118.907 117.311-213.564 245.8-393.255 248.19-537.639 250.109-74.755.997-139.314 1.855-194.998 35.555z" transform="translate(40.867 -27.603)"/>
                </g>
                <g id="Group_16298" data-name="Group 16298" transform="translate(-34.392 148.017)">
                    <path id="Path_17627" data-name="Path 17627" class="cls-4" d="m-44.585 552.825-.163-.444c42.872-15.655 91.394-15.811 147.579-15.99 144.9-.461 343.356-1.1 584.081-300.984 110.744-137.96 152.071-131.845 209.266-123.364 51.272 7.593 115.086 17.047 253.23-74.073l.263.4c-138.3 91.22-202.206 81.752-253.562 74.148-57.041-8.451-98.252-14.554-208.826 123.193-106.9 133.173-213.764 219.176-326.7 262.919-97.4 37.728-182.589 38-257.753 38.242-56.137.174-104.62.328-147.415 15.953z" transform="translate(44.748 -37.97)"/>
                </g>
                <g id="Group_16299" data-name="Group 16299" transform="translate(-43.441 172.133)">
                    <path id="Path_17628" data-name="Path 17628" class="cls-4" d="M118.511 548.11c-26.4 0-51.3-1.34-74.294-2.576-33.416-1.8-64.98-3.5-92.818-.591l-.035-.314c27.862-2.913 59.435-1.212 92.87.586 65.973 3.555 142.478 7.662 230.18-18.289a506.128 506.128 0 0 1-105.523 19.325c-17.302 1.355-34.125 1.859-50.38 1.859zm305.049-92.448c78.857-52.529 164.97-133.987 258.658-259.459C733.05 128.124 775.294 90.89 815.16 79.025c36.015-10.724 67.007.275 99.818 11.918 59.8 21.216 127.565 45.264 252.262-42.609l.182.258c-55.668 39.231-105.009 59.575-150.843 62.2-40.127 2.294-71.43-8.807-101.7-19.55-32.762-11.623-63.707-22.6-99.622-11.914-39.8 11.846-81.989 49.046-132.78 117.067-33.3 44.6-67.039 85.37-100.267 121.176-31.282 33.709-63.032 64-94.364 90.04a756.464 756.464 0 0 1-64.287 48.051z" transform="translate(48.637 -48.334)"/>
                </g>
                <g id="Group_16300" data-name="Group 16300" transform="translate(-52.553 175.464)">
                    <path id="Path_17629" data-name="Path 17629" class="cls-4" d="M72 569.486c-35.061-3.069-66.823-9.345-95.6-15.034-10.131-2-19.7-3.893-28.958-5.554l.028-.156c9.259 1.661 18.829 3.551 28.96 5.557C5.4 560.023 37.243 566.31 72 569.486zm483.72-244.322c39.031-44.185 79.632-95.9 121.844-156.318a554.5 554.5 0 0 1 40.178-51.421 300.534 300.534 0 0 1 36.767-35.28c22.21-17.619 43.687-27.806 65.652-31.154 41.057-6.245 77.564 12.456 116.22 32.26 35.775 18.329 74.187 38 119.866 38 37.272 0 79.379-13.091 128.864-50.7l.1.128a322.4 322.4 0 0 1-39.6 25.991 223.2 223.2 0 0 1-36.425 16.123c-21.9 7.313-43.107 10.071-64.812 8.433-40.145-3.036-74.674-20.726-108.064-37.834-33.467-17.144-65.334-33.47-99.9-33.47a107.761 107.761 0 0 0-16.223 1.224c-45.965 7-91.243 44.431-142.492 117.79-38.861 55.628-78.045 106.086-116.462 149.971q-2.757 3.148-5.513 6.257z" transform="translate(52.553 -49.766)"/>
                </g>
            </g>
        </g>
    </g>
</svg>
