<svg id="FlyFoe_Logo" data-name="FlyFoe Logo" xmlns="http://www.w3.org/2000/svg" width="63.427" height="55.969">
    <defs>
        <style>
            .cls-1{fill:#fff}.cls-2{fill:#db3927}
        </style>
    </defs>
    <g id="Group_203" data-name="Group 203">
        <g id="Group_202" data-name="Group 202">
            <g id="Layer_1-2">
                <path id="Path_129" data-name="Path 129" class="cls-1" d="M31.036 55.908A28.147 28.147 0 0 1 8.937 45.1l-.46-.6q-.691-.934-1.3-1.95L0 44.073.3 24.6l3.033-.677A27.981 27.981 0 0 1 54.6 12.847l8.829-1.9-.7 19.824-3.954.812-.027.244h-.027a27.929 27.929 0 0 1-27.685 24.081z" transform="translate(0 .06)"/>
                <path id="Path_130" data-name="Path 130" class="cls-2" d="M69.158 30.91c0 .921-.054 1.842-.135 2.762 0 .081-.027.162-.027.244A26.876 26.876 0 0 1 20.6 46.78a26.8 26.8 0 0 1-5.2-15.924 23.622 23.622 0 0 1 .19-3.087.344.344 0 0 1 .027-.162v-.054a26.854 26.854 0 0 1 49.561-10.67l.027.054c.027.054.054.081.081.135l.244.406a26.662 26.662 0 0 1 3.628 13.432z" transform="translate(-11.229 -2.917)"/>
                <path id="Path_131" data-name="Path 131" class="cls-1" d="M62.024 30a19.824 19.824 0 1 0 19.825 19.824A19.834 19.834 0 0 0 62.024 30zm0 35.613a15.775 15.775 0 1 1 15.789-15.762 15.788 15.788 0 0 1-15.789 15.762z" transform="translate(-30.771 -21.859)"/>
                <g id="Group_201" data-name="Group 201" transform="translate(7.718 30.755)" style="opacity:.39">
                    <path id="Path_132" data-name="Path 132" d="M78.575 113.5c0 .081-.027.19-.027.271l-48.4 12.891a29.897 29.897 0 0 1-1.652-2.519l49.967-10.616.081-.027z" transform="translate(-28.5 -113.5)" style="fill:#535352"/>
                </g>
                <path id="Path_133" data-name="Path 133" class="cls-2" d="m65.306 45.6-.623 17.6-3.9.812h-.027l-.081.027-49.967 10.593L4.1 76.041l.271-17.251 2.952-.65a.344.344 0 0 1 .027-.162l49.642-10.726c.027.054.054.081.081.135z" transform="translate(-2.99 -33.234)"/>
                <path id="Path_134" data-name="Path 134" class="cls-1" d="m15.2 111.35.19-9.479 7.42-1.571-.46 2.356-3.9.812-.027 1.517 3.277-.7-.46 2.248-2.871.623-.081 3.521z" transform="translate(-11.083 -73.12)"/>
                <path id="Path_135" data-name="Path 135" class="cls-1" d="m49 106.256.19-9.479 3.169-.677-.135 7.15 4.035-.867-.46 2.41z" transform="translate(-35.73 -70.058)"/>
                <path id="Path_136" data-name="Path 136" class="cls-1" d="m75.45 96.879.081-4.008-3.331-4.74 3.087-.6 1.733 2.708 1.788-3.439 3.06-.7-3.3 6.148-.054 3.981z" transform="translate(-52.647 -62.766)"/>
                <path id="Path_137" data-name="Path 137" class="cls-1" d="m111.4 90.35.19-9.479 7.42-1.571-.46 2.329-3.927.84-.027 1.517 3.277-.7-.433 2.248-2.871.623-.081 3.548z" transform="translate(-81.23 -57.807)"/>
                <path id="Path_138" data-name="Path 138" class="cls-1" d="m189 73.931.758-9.587 7.448-1.544-.433 2.248-4.2.894-.027 1.354 3.737-.785-.433 2.221-3.331.7-.027 1.544L197.1 70l-.433 2.329z" transform="translate(-137.814 -45.776)"/>
                <path id="Path_139" data-name="Path 139" class="cls-1" d="M151.272 72.1a4.062 4.062 0 0 0-4.848-3.467V67.2l-.7.623v.948a6.943 6.943 0 0 0-4.9 5.877l-1.056.244-.163.758 1.219-.3a4.089 4.089 0 0 0 4.9 3.927v1.383l.7-.623v-.921a6.878 6.878 0 0 0 4.929-6.31v-.027l1.056-.244.162-.758zm-2.762 1.381a3.26 3.26 0 0 1-2.112 2.871 1.752 1.752 0 0 1-.352.108 1.6 1.6 0 0 1-.379.054 1.888 1.888 0 0 1-2.085-1.679v-.325a3.668 3.668 0 0 1 .054-.542 3.382 3.382 0 0 1 2.058-2.383c.108-.027.244-.081.352-.108a1.585 1.585 0 0 1 .352-.054 1.887 1.887 0 0 1 2.031 1.354 2.67 2.67 0 0 1 .081.65c.027.027.027.054 0 .054z" transform="translate(-101.793 -48.984)"/>
                <path id="Path_140" data-name="Path 140" class="cls-2" d="M156.635 79.693a3.075 3.075 0 0 0-1.083-1.842 3.276 3.276 0 0 0-2.492-.65c-.135.027-.271.027-.379.054a2.815 2.815 0 0 0-.325.081 5.234 5.234 0 0 0-3.629 4.306 2.626 2.626 0 0 0-.027.46v.271a3.1 3.1 0 0 0 3.169 3.006 2.627 2.627 0 0 0 .46-.027c.135-.027.271-.027.379-.054s.244-.054.325-.081a5.185 5.185 0 0 0 3.656-4.766v-.027a3.092 3.092 0 0 0-.054-.731zm-3.6 5.227a1.562 1.562 0 0 1-.379.081 1.372 1.372 0 0 1-.352.054 2.91 2.91 0 0 1-3.412-2.817v-.217a3.279 3.279 0 0 1 .027-.515 5.036 5.036 0 0 1 3.412-4.008 1.563 1.563 0 0 1 .379-.081 1.373 1.373 0 0 1 .352-.054 2.629 2.629 0 0 1 .46-.027 3.035 3.035 0 0 1 1.9.65 2.781 2.781 0 0 1 1 1.733 2.75 2.75 0 0 1 .054.677v.027a4.929 4.929 0 0 1-3.443 4.496z" transform="translate(-108.429 -56.25)"/>
                <path id="Path_141" data-name="Path 141" class="cls-1" d="M65.75 51.69 16 62.441a.344.344 0 0 1 .027-.163v-.054L65.642 51.5l.027.054a.591.591 0 0 1 .081.136z" transform="translate(-11.667 -37.536)"/>
            </g>
        </g>
    </g>
    <path id="Path_142" data-name="Path 142" class="cls-2" d="M219.937 122.937a1.391 1.391 0 0 1-1 .406 1.454 1.454 0 0 1-1.029-.406 1.409 1.409 0 0 1-.406-1.029 1.356 1.356 0 0 1 .46-1.029 1.305 1.305 0 0 1 .975-.379 1.347 1.347 0 0 1 1 .406 1.391 1.391 0 0 1 .406 1 1.257 1.257 0 0 1-.406 1.031zm-1.842-1.869a1.238 1.238 0 0 0-.352.84 1.2 1.2 0 0 0 1.192 1.192 1.126 1.126 0 0 0 .84-.352 1.238 1.238 0 0 0 .352-.84 1.126 1.126 0 0 0-.352-.84 1.086 1.086 0 0 0-.84-.352 1.126 1.126 0 0 0-.835.353zm.217 1.625v-1.6h.758a.644.644 0 0 1 .325.081.4.4 0 0 1 .217.379.37.37 0 0 1-.108.3.482.482 0 0 1-.271.108.917.917 0 0 1 .217.081.468.468 0 0 1 .135.352v.244l.027.054h-.406c0-.054-.027-.135-.027-.217 0-.108 0-.162-.027-.19-.027-.054-.054-.108-.108-.108a.2.2 0 0 0-.135-.027h-.163v.569h-.433zm.758-1.273a.6.6 0 0 0-.244-.027h-.108v.46h.162a.42.42 0 0 0 .217-.054.211.211 0 0 0 .081-.19.154.154 0 0 0-.107-.188z" transform="translate(-158.596 -87.849)"/>
</svg>
